:SAMPLES-PER-SECOND 30
:FULLY-SPECIFIED
:DEGREES
213
root  -6.29264426 39.16799891 1.905471133 9.35899353 -28.23800659 -4.195999146
lowerback  14.21700001 2.668050051 -3.576999903
upperback  4.345170021 2.81359005 -2.774379969
thorax  -3.400569916 1.366790056 -1.363880038
lowerneck  -1.168120027 -0.5904269814 -9.936579704
upperneck  5.093679905 -1.120290041 12.4538002
head  1.800799966 -0.4846689999 5.388860226
lclavicle  0 -9.442270133e-015 7.951389973e-016
lhumerus  1.453359962 -16.53750038 73.03109741
lradius  2.770302719e-031 -2.18958144e-031 141.6779938
lwrist  -7.062250077e-031 -3.531125038e-031 8.442420006
lhand  -1.496451383e-031 -27.76390076 20.11240005
lfingers  90 7.125020027 -90
lthumb  89.89689403 5.08795885 91.16245106
rclavicle  0 -9.442270133e-015 7.951389973e-016
rhumerus  -5.854100227 13.12380028 -72.92369843
rradius  -3.192368582e-032 3.516664878e-031 95.18699646
rwrist  3.531125038e-031 -1.765562519e-031 -3.607800007
rhand  -7.920061211e-032 -33.2840004 9.303460121
rfingers  -90 -7.125020027 -90
rthumb  -92.93752616 -24.25625642 -97.11982154
rfemur  -13.97799969 19.37240028 5.859839916
rtibia  -0 0 41.9858017
rfoot  -0 -17.65740013 -15.49559975
rtoes  5.373923086 19.29304026 -105.8922705
lfemur  -42.22219849 -1.618530035 4.082940102
ltibia  -0 0 58.54539871
lfoot  4.414912328e-032 1.223180056 -4.373179913
ltoes  -4.250644065 -19.5611806 -102.515957
214
root  -6.391311255 38.97733313 1.757991032 9.052993774 -29.00700378 -4.246002197
lowerback  14.24590015 2.491729975 -3.691859961
upperback  4.369209766 2.577300072 -2.492909908
thorax  -3.407979965 1.24901998 -0.9645370245
lowerneck  -1.46123004 -0.3487539887 -9.789460182
upperneck  5.358860016 -0.7571539879 11.71860027
head  1.884619951 -0.3057020009 5.142809868
lclavicle  0 -9.442270133e-015 7.951389973e-016
lhumerus  2.116750002 -15.86240005 73.0911026
lradius  2.760876726e-031 -2.201454915e-031 141.4320068
lwrist  0 -0 8.639100075
lhand  -1.496451383e-031 -27.76390076 20.11240005
lfingers  90 7.125020027 -90
lthumb  89.89689403 5.08795885 91.16245106
rclavicle  0 -9.442270133e-015 7.951389973e-016
rhumerus  -8.250579834 14.14760017 -72.93669891
rradius  -4.93939747e-032 3.496407809e-031 98.04100037
rwrist  1.059337512e-030 -0 -3.311249971
rhand  -7.920061211e-032 -33.2840004 9.303460121
rfingers  -90 -7.125020027 -90
rthumb  -92.93752616 -24.25625642 -97.11982154
rfemur  -13.84930038 20.62229919 5.739319801
rtibia  -0 0 42.23860168
rfoot  -0 -18.57519913 -15.43190002
rtoes  5.373923086 19.29304026 -105.8922705
lfemur  -42.05390167 -0.2718690038 3.728399992
ltibia  -0 0 62.6413002
lfoot  4.414041536e-032 0.4485070109 -5.995580196
ltoes  -4.250644065 -19.5611806 -102.515957
215
root  -6.492133403 38.76844391 1.609962193 8.731994629 -29.85499573 -4.311004639
lowerback  14.30539989 2.24248004 -3.67843008
upperback  4.283130169 2.25019002 -2.383160114
thorax  -3.530989885 1.089020014 -0.8052549958
lowerneck  -1.312399983 0.03219079971 -9.539660454
upperneck  5.412680149 -0.2421029955 11.22809982
head  1.819519997 -0.05982350186 4.957859993
lclavicle  0 -9.442270133e-015 7.951389973e-016
lhumerus  2.224519968 -15.10620022 73.01029968
lradius  2.755373489e-031 -2.208338963e-031 141.2890015
lwrist  -1.412450015e-030 -0 8.800279617
lhand  -1.496451383e-031 -27.76390076 20.11240005
lfingers  90 7.125020027 -90
lthumb  89.89689403 5.08795885 91.16245106
rclavicle  0 -9.442270133e-015 7.951389973e-016
rhumerus  -10.65149975 15.23690033 -73.45880127
rradius  -6.614245534e-032 3.468625318e-031 100.7959976
rwrist  1.059337512e-030 -3.531125038e-031 -2.859230042
rhand  -7.920061211e-032 -33.2840004 9.303460121
rfingers  -90 -7.125020027 -90
rthumb  -92.93752616 -24.25625642 -97.11982154
rfemur  -13.69260025 21.78879929 5.675119877
rtibia  -0 0 42.72330093
rfoot  -0 -18.8314991 -16.00090027
rtoes  5.373923086 19.29304026 -105.8922705
lfemur  -41.76150131 1.197829962 3.421000004
ltibia  -0 0 66.6516037
lfoot  -0 -0.3652200103 -7.277729988
ltoes  -4.250644065 -19.5611806 -102.515957
216
root  -6.596066633 38.54622128 1.476817807 8.264007568 -30.74699402 -4.29699707
lowerback  14.73209953 2.031810045 -3.872450113
upperback  3.95965004 1.920969963 -2.17027998
thorax  -4.111100197 0.9359369874 -0.437770009
lowerneck  -0.9293410182 0.4918060005 -9.463439941
upperneck  5.63560009 0.3561089933 10.69540024
head  1.760560036 0.2174630016 4.789850235
lclavicle  0 -9.442270133e-015 7.951389973e-016
lhumerus  1.479230046 -14.53709984 73.40149689
lradius  2.756259558e-031 -2.207232948e-031 141.3119965
lwrist  -7.062250077e-031 -3.531125038e-031 8.607689857
lhand  -1.496451383e-031 -27.76390076 20.11240005
lfingers  90 7.125020027 -90
lthumb  89.89689403 5.08795885 91.16245106
rclavicle  0 -9.442270133e-015 7.951389973e-016
rhumerus  -13.38519955 16.57169914 -74.00509644
rradius  -8.176713345e-032 3.435150306e-031 103.3889999
rwrist  1.412450015e-030 -3.531125038e-031 -2.550940037
rhand  -7.920061211e-032 -33.2840004 9.303460121
rfingers  -90 -7.125020027 -90
rthumb  -92.93752616 -24.25625642 -97.11982154
rfemur  -13.45829964 23.01059914 5.587769985
rtibia  -0 0 43.31069946
rfoot  -0 -19.84140015 -16.24720001
rtoes  5.373923086 19.29304026 -105.8922705
lfemur  -41.21870041 2.581449986 3.101439953
ltibia  -0 0 70.41480255
lfoot  -0 -1.07991004 -8.309559822
ltoes  -4.250644065 -19.5611806 -102.515957
217
root  -6.702332985 38.31399933 1.352277797 7.690994263 -31.61500549 -4.156997681
lowerback  14.66020012 1.781790018 -4.023359776
upperback  4.045189857 1.581920028 -2.053319931
thorax  -3.981470108 0.7668610215 -0.1643850058
lowerneck  -1.086120009 0.9237340093 -9.337849617
upperneck  5.856309891 0.962808013 10.10770035
head  1.794819951 0.5131030083 4.598320007
lclavicle  0 -9.442270133e-015 7.951389973e-016
lhumerus  1.226179957 -13.81809998 73.52870178
lradius  2.760722527e-031 -2.201648284e-031 141.4279938
lwrist  -7.062250077e-031 -1.765562519e-031 8.38146019
lhand  -1.496451383e-031 -27.76390076 20.11240005
lfingers  90 7.125020027 -90
lthumb  89.89689403 5.08795885 91.16245106
rclavicle  0 -9.442270133e-015 7.951389973e-016
rhumerus  -15.3682003 17.67510033 -74.49990082
rradius  -9.546931778e-032 3.399618357e-031 105.685997
rwrist  3.531125038e-031 -3.531125038e-031 -2.370559931
rhand  -7.920061211e-032 -33.2840004 9.303460121
rfingers  -90 -7.125020027 -90
rthumb  -92.93752616 -24.25625642 -97.11982154
rfemur  -13.2489996 24.11000061 5.399499893
rtibia  -0 0 43.87220001
rfoot  -0 -21.42140007 -15.81830025
rtoes  5.373923086 19.29304026 -105.8922705
lfemur  -40.49420166 3.761240005 2.73574996
ltibia  -0 0 73.76100159
lfoot  -0 -1.534759998 -9.198949814
ltoes  -4.250644065 -19.5611806 -102.515957
218
root  -6.810333222 38.08022146 1.233888893 7.054992676 -32.51499939 -3.869995117
lowerback  14.57079983 1.520730019 -4.277840137
upperback  4.1384902 1.209400058 -2.030469894
thorax  -3.829489946 0.5803549886 0.0733807981
lowerneck  -1.389889956 1.351600051 -9.066740036
upperneck  6.156829834 1.570119977 9.470149994
head  1.883270025 0.813000977 4.370399952
lclavicle  0 -9.442270133e-015 7.951389973e-016
lhumerus  1.007069945 -12.95510006 73.4417038
lradius  2.767434308e-031 -2.193205733e-031 141.6029968
lwrist  -7.062250077e-031 -1.765562519e-031 8.384030342
lhand  -1.496451383e-031 -27.76390076 20.11240005
lfingers  90 7.125020027 -90
lthumb  89.89689403 5.08795885 91.16245106
rclavicle  0 -9.442270133e-015 7.951389973e-016
rhumerus  -17.17289925 18.72100067 -75.23789978
rradius  -1.089712118e-031 3.358775303e-031 107.9749985
rwrist  1.059337512e-030 -0 -2.248680115
rhand  -7.920061211e-032 -33.2840004 9.303460121
rfingers  -90 -7.125020027 -90
rthumb  -92.93752616 -24.25625642 -97.11982154
rfemur  -13.10330009 24.98839951 5.044509888
rtibia  -0 0 44.37919998
rfoot  -0 -23.07990074 -15.02130032
rtoes  5.373923086 19.29304026 -105.8922705
lfemur  -39.57949829 4.755179882 2.259619951
ltibia  -0 0 76.60119629
lfoot  -0 -1.746189952 -10.15639973
ltoes  -4.250644065 -19.5611806 -102.515957
